<?xml version="1.0" encoding="UTF-8" standalone="no"?>
<!-- Created with Keyshape -->
<svg xmlns="http://www.w3.org/2000/svg" shape-rendering="geometricPrecision" text-rendering="geometricPrecision" viewBox="0 0 250 187.5" style="white-space: pre;">
    <style>
@keyframes text_t { 0% { transform: translate(89.74px,92.529px) scale(0.5,0.5) translate(-985.9105px,-877px); } 13.3333% { transform: translate(89.74px,92.529px) scale(0.5,0.5) translate(-985.9105px,-877px); } 20% { transform: translate(146.267731px,110.651094px) scale(1,1) translate(-985.9105px,-877px); } 25% { transform: translate(188.663528px,124.242664px) scale(1,1) translate(-985.9105px,-877px); } 100% { transform: translate(188.663528px,124.242664px) scale(1,1) translate(-985.9105px,-877px); } }
@keyframes text_s { 0% { stroke: #000000; } 23.3333% { stroke: #000000; } 25% { stroke: #12c60f; } 100% { stroke: #12c60f; } }
@keyframes text_f { 0% { fill: #000000; } 23.3333% { fill: #000000; } 25% { fill: #12c60f; } 100% { fill: #12c60f; } }
@keyframes text-2_t { 0% { transform: translate(151.922564px,93.750001px) scale(0.5,0.5) translate(-985.9105px,-877px); } 6.6666% { transform: translate(165.282913px,77.962122px) scale(1,1) translate(-985.9105px,-877px); } 18.3333% { transform: translate(188.663525px,50.333333px) scale(1,1) translate(-985.9105px,-877px); } 100% { transform: translate(188.663525px,50.333333px) scale(1,1) translate(-985.9105px,-877px); } }
@keyframes text-2_s { 0% { stroke: #000000; } 16.6667% { stroke: #000000; } 18.3333% { stroke: #12c60f; } 100% { stroke: #12c60f; } }
@keyframes text-2_f { 0% { fill: #000000; } 16.6667% { fill: #000000; } 18.3333% { fill: #12c60f; } 100% { fill: #12c60f; } }
@keyframes image_t { 0% { transform: translate(151.884262px,98.47288px) scale(0.5,0.5) translate(-12.0004px,-12px); } 8.3333% { transform: translate(151.884262px,98.47288px) scale(0.5,0.5) translate(-12.0004px,-12px); } 15% { transform: translate(174.843127px,90.232794px) scale(1,1) translate(-12.0004px,-12px); } 25% { transform: translate(209.281424px,77.872665px) scale(1,1) translate(-12.0004px,-12px); } 100% { transform: translate(209.281424px,77.872665px) scale(1,1) translate(-12.0004px,-12px); } }
@keyframes image_s { 0% { stroke: #000000; } 23.3333% { stroke: #000000; } 25% { stroke: #12c60f; } 100% { stroke: #12c60f; } }
@keyframes a0_t { 0% { transform: translate(145.74px,114.529px); } 40% { transform: translate(145.74px,114.529px); animation-timing-function: cubic-bezier(0,0,1,1); } 58.3333% { transform: translate(136.623px,162.960278px); } 100% { transform: translate(136.623px,162.960278px); } }
@keyframes text-3_t { 0% { transform: scale(0.5,0.5) translate(-985.911px,-877px); } 40% { transform: scale(0.5,0.5) translate(-985.911px,-877px); } 46.6666% { transform: scale(1,1) translate(-985.911px,-877px); } 100% { transform: scale(1,1) translate(-985.911px,-877px); } }
@keyframes text-3_s { 0% { stroke: #000000; } 56.6667% { stroke: #000000; } 58.3333% { stroke: #12c60f; } 100% { stroke: #12c60f; } }
@keyframes text-3_f { 0% { fill: #000000; } 56.6667% { fill: #000000; } 58.3333% { fill: #12c60f; } 100% { fill: #12c60f; } }
@keyframes a1_t { 0% { transform: translate(139.74px,86.529px); } 63.3333% { transform: translate(139.74px,86.529px); animation-timing-function: cubic-bezier(0,0,1,1); } 81.6666% { transform: translate(136.623505px,27.044263px); } 100% { transform: translate(136.623505px,27.044263px); } }
@keyframes text-5_t { 0% { transform: scale(0.5,0.5) translate(-985.911px,-877px); } 63.3333% { transform: scale(0.5,0.5) translate(-985.911px,-877px); } 70% { transform: scale(1,1) translate(-985.911px,-877px); } 100% { transform: scale(1,1) translate(-985.911px,-877px); } }
@keyframes text-5_s { 0% { stroke: #000000; } 80% { stroke: #000000; } 81.6667% { stroke: #12c60f; } 100% { stroke: #12c60f; } }
@keyframes text-5_f { 0% { fill: #000000; } 80% { fill: #000000; } 81.6667% { fill: #12c60f; } 100% { fill: #12c60f; } }
@keyframes a2_t { 0% { transform: translate(90.646094px,116.518531px); } 53.3333% { transform: translate(90.646094px,116.518531px); animation-timing-function: cubic-bezier(0,0,1,1); } 71.6666% { transform: translate(45.731487px,90.836162px); } 100% { transform: translate(45.731487px,90.836162px); } }
@keyframes text-6_t { 0% { transform: scale(0.5,0.5) translate(-985.911px,-877px); } 53.3333% { transform: scale(0.5,0.5) translate(-985.911px,-877px); } 60% { transform: scale(1,1) translate(-985.911px,-877px); } 100% { transform: scale(1,1) translate(-985.911px,-877px); } }
@keyframes text-6_s { 0% { stroke: #000000; } 70% { stroke: #000000; } 71.6667% { stroke: #12c60f; } 100% { stroke: #12c60f; } }
@keyframes text-6_f { 0% { fill: #000000; } 70% { fill: #000000; } 71.6667% { fill: #12c60f; } 100% { fill: #12c60f; } }
@keyframes a3_t { 0% { transform: translate(108.739998px,85.528999px); } 26.6666% { transform: translate(108.739998px,85.528999px); animation-timing-function: cubic-bezier(0,0,1,1); } 45% { transform: translate(70.188602px,162.006667px); } 100% { transform: translate(70.188602px,162.006667px); } }
@keyframes text-4_t { 0% { transform: scale(0.5,0.5) translate(-985.911px,-877px); } 26.6666% { transform: scale(0.5,0.5) translate(-985.911px,-877px); } 33.3333% { transform: scale(1,1) translate(-985.911px,-877px); } 100% { transform: scale(1,1) translate(-985.911px,-877px); } }
@keyframes text-4_s { 0% { stroke: #000000; } 43.3333% { stroke: #000000; } 45% { stroke: #12c60f; } 100% { stroke: #12c60f; } }
@keyframes text-4_f { 0% { fill: #000000; } 43.3333% { fill: #000000; } 45% { fill: #12c60f; } 100% { fill: #12c60f; } }
@keyframes image-2_t { 0% { transform: translate(97.123px,95.144px) scale(0.5,0.5) translate(-12.0004px,-12px); } 35% { transform: translate(97.123px,95.144px) scale(0.5,0.5) translate(-12.0004px,-12px); } 41.6666% { transform: translate(70.7862px,66.182533px) scale(1,1) translate(-12.0004px,-12px); } 51.6666% { transform: translate(31.281px,22.740333px) scale(1,1) translate(-12.0004px,-12px); } 100% { transform: translate(31.281px,22.740333px) scale(1,1) translate(-12.0004px,-12px); } }
@keyframes image-2_s { 0% { stroke: #000000; } 50% { stroke: #000000; } 51.6667% { stroke: #12c60f; } 100% { stroke: #12c60f; } }
    </style>
    <path id="text" d="M973.293,885.823L995.374,885.823L995.374,882.295L973.293,882.295L973.293,885.823ZM973.293,871.706L998.528,871.706L998.528,868.177L973.293,868.177L973.293,871.706ZM973.293,892.882L985.911,892.882L985.911,889.352L973.293,889.352L973.293,892.882ZM973.293,878.765L992.22,878.765L992.22,875.235L973.293,875.235L973.293,878.765ZM973.293,864.647L985.911,864.647L985.911,861.118L973.293,861.118L973.293,864.647Z" fill-rule="evenodd" fill="#000000" stroke="#000000" transform="translate(89.74,92.529) scale(0.5,0.5) translate(-985.911,-877)" style="animation: 6s linear infinite both text_t, 6s linear infinite both text_s, 6s linear infinite both text_f;"/>
    <g fill="none" transform="translate(122.39,96.4563) scale(0.25,0.25) translate(-174.494,-125.862)">
        <path d="M26.2923,325.204C31.2719,237,25.1479,173,25.1484,89.5925C25.2835,86.7466,25.4079,83.9028,25.453,81.0532C25.4718,79.7141,25.5258,78.3722,25.5807,77.0331C25.606,76.3611,25.6134,75.6854,25.6363,75.0105C27.5109,74.8821,29.3986,74.842,31.2723,74.6906C33.4023,74.5199,35.5282,74.3205,37.6549,74.1498C41.9394,73.8027,46.2214,74.1333,50.4961,74.3743C54.8134,74.6203,59.1232,74.7688,63.447,74.8276C67.9968,74.8864,72.5506,74.9259,77.1003,74.8305C85.5072,74.6512,119.546,75.0772,121.643,74.9625C123.6,74.8556,125.548,74.7301,127.507,74.6878C131.508,74.6038,355.167,74.601,359.168,74.6935C361.534,74.7466,363.897,74.7638,366.263,74.7609C367.322,74.7609,368.384,74.7351,369.445,74.6992C369.813,74.6863,370.182,74.6619,370.551,74.6376C370.657,75.131,370.747,75.6288,370.849,76.1107C370.992,76.7864,371.109,77.4656,371.222,78.1448C371.646,81.9676,371.603,85.8249,371.389,89.6542C371.15,93.8794,371.054,98.0989,371.047,102.326C371.041,106.252,371.326,110.174,371.351,114.099C371.38,118.478,371.373,122.857,371.376,127.239C371.383,135.535,371.997,210.282,372.285,218.581C372.419,222.492,372.377,226.389,372.253,230.298C371.366,258.802,371.11,288.096,373.822,316.581C374.006,318.545,374.209,321.254,374.111,323.229C372.072,323.425,370.162,323.466,368.243,323.574C365.902,323.706,58.0004,325.211,54.4846,325.443C52.7189,325.561,50.954,325.67,49.1858,325.723" stroke="#000000" stroke-linecap="round" stroke-linejoin="round" stroke-opacity="0.9" stroke-width="12" transform="translate(174.494,125.862) translate(-199.642,-199.861)"/>
        <path d="M136.192,99.2402C133.308,96.4329,130.411,95.0293,127.5,95.0293C123.135,95.0293,117.227,96.8191,117.227,104.331C117.227,111.844,121.463,114.414,125.314,114.414C129.165,114.414,133.273,112.583,134.774,111.247" stroke="#000000" stroke-linecap="round" stroke-linejoin="round" stroke-opacity="0.9" stroke-width="12" transform="translate(101.561,30.7221) translate(-126.71,-104.722)"/>
        <path d="M134.66,92C134.993,92.7614,135.268,93.6496,135.486,94.6647C135.703,95.6797,135.938,97.1674,136.188,99.1278C134.506,99.5955,133.323,99.9775,132.638,100.274C131.953,100.57,131.161,101.043,130.262,101.692" stroke="#000000" stroke-linecap="round" stroke-linejoin="round" stroke-opacity="0.9" stroke-width="12" transform="translate(108.077,22.8465) translate(-133.225,-96.846)"/>
        <path d="M82.6399,111.047C82.6595,111.195,84.5149,109.845,86.586,108.1C87.6082,107.239,89.0954,106.116,90.087,105.237C91.3756,104.094,92.4091,102.986,93.1875,101.914C93.1875,101.527,89.4029,98.1758,89.1206,97.9251C88.3198,97.2139,84.5734,94.2535,84.109,93.8612C83.6964,93.5127,83.2797,93.1749,82.8645,92.8332C82.8365,92.8101,82.8057,92.7943,82.7678,92.7695" stroke="#000000" stroke-linecap="round" stroke-linejoin="round" stroke-opacity="0.9" stroke-width="12" transform="translate(62.7653,27.9143) translate(-87.9137,-101.914)"/>
        <path d="M59.5672,111.047C59.5475,111.195,57.6921,109.845,55.6211,108.1C54.5988,107.239,53.1116,106.116,52.12,105.237C50.8314,104.094,49.7979,102.986,49.0195,101.914C49.0195,101.527,52.8041,98.1758,53.0864,97.9251C53.8872,97.2139,57.6337,94.2535,58.0981,93.8612C58.5106,93.5127,58.9273,93.1749,59.3425,92.8332C59.3705,92.8101,59.4013,92.7943,59.4392,92.7695" stroke="#000000" stroke-linecap="round" stroke-linejoin="round" stroke-opacity="0.9" stroke-width="12" transform="translate(29.145,27.9143) translate(-54.2934,-101.914)"/>
        <path d="M159.836,109.738C159.903,109.642,159.97,109.546,160.001,109.45C160.051,109.295,160.077,109.14,160.127,108.984C160.174,108.837,160.203,108.689,160.139,108.542C160.077,108.394,159.989,108.247,159.92,108.1C159.837,97,159.998,91.7179,161.3,91.7217C169.333,91.6337,177.367,91.7548,185.402,91.7318C189.823,91.7189,207.725,91.7495,208.828,91.7413C209.857,91.7336,210.881,91.7245,211.912,91.7215C214.016,91.7155,331.644,91.7153,333.748,91.7219C334.993,91.7257,336.235,91.727,337.48,91.7268C338.037,91.7268,338.595,91.7249,339.153,91.7223C339.347,91.7214,339.541,91.7197,339.735,91.7179C339.791,91.7534,339.838,91.7892,339.892,91.8238C339.967,91.8724,340.028,91.9213,340.088,91.9701C340.311,92.2451,340.288,92.5225,340.176,92.7979C340.05,93.1017,339.999,93.4052,339.996,93.7092C339.993,93.9915,340.142,94.2736,340.156,94.5559C340.356,98.7374,340.282,103.225,340.8,107.385C340.848,107.775,340.813,108.165,341.101,108.554C341.239,108.742,341.325,108.93,341.455,109.118C341.552,109.259,341.659,109.454,341.607,109.596C340.535,109.61,339.53,109.613,338.521,109.621C337.29,109.63,175.357,109.739,173.507,109.755C172.579,109.764,171.651,109.772,170.721,109.775" stroke="#000000" stroke-linecap="round" stroke-linejoin="round" stroke-opacity="0.9" stroke-width="12" transform="translate(225.58,26.7326) translate(-250.728,-100.732)"/>
    </g>
    <path id="text-2" d="M973.293,885.823L995.374,885.823L995.374,882.295L973.293,882.295L973.293,885.823ZM973.293,871.706L998.528,871.706L998.528,868.177L973.293,868.177L973.293,871.706ZM973.293,892.882L985.911,892.882L985.911,889.352L973.293,889.352L973.293,892.882ZM973.293,878.765L992.22,878.765L992.22,875.235L973.293,875.235L973.293,878.765ZM973.293,864.647L985.911,864.647L985.911,861.118L973.293,861.118L973.293,864.647Z" fill-rule="evenodd" fill="#000000" stroke="#000000" transform="translate(151.923,93.75) scale(0.5,0.5) translate(-985.911,-877)" style="animation: 6s linear infinite both text-2_t, 6s linear infinite both text-2_s, 6s linear infinite both text-2_f;"/>
    <path id="image" d="M20.4717,24.8306L15.4484,17.1299C14.6483,15.9033,14.2484,15.2902,13.7565,15.0835C13.3263,14.9028,12.8475,14.9132,12.4244,15.1126C11.9406,15.3406,11.5638,15.9708,10.8102,17.231L4.45039,27.8671C4.28344,28.1462,4.19997,28.286,4.14084,28.4363C4.08837,28.5698,4.05026,28.7094,4.02725,28.8524C4.00131,29.0133,4.00128,29.1798,4.00119,29.5123L4,34.299L32.0008,34.299L32.0008,29.4898C32.0008,29.1654,32.0008,29.0033,31.9761,28.8459C31.9543,28.7064,31.9179,28.5698,31.868,28.439C31.8115,28.2915,31.7318,28.1542,31.5726,27.8794L29.8819,24.9635C28.3878,22.3868,27.6408,21.0983,26.6699,20.6287C25.8212,20.2179,24.8562,20.1895,23.9882,20.5499C22.9953,20.9618,22.1847,22.2044,20.5636,24.6897L20.4717,24.8306ZM20.4717,24.8306L26.6699,34.299M32.0008,7.78737C32.0008,9.87909,30.4339,11.5747,28.5009,11.5747C26.5679,11.5747,25.0009,9.87909,25.0009,7.78737C25.0009,5.69566,26.5679,4,28.5009,4C30.4339,4,32.0008,5.69566,32.0008,7.78737Z" stroke="#000000" stroke-width="2" stroke-linecap="round" stroke-linejoin="round" fill="none" transform="translate(151.884,98.4729) scale(0.5,0.5) translate(-12.0004,-12)" style="animation: 6s linear infinite both image_t, 6s linear infinite both image_s;"/>
    <g id="text-3" style="animation: 6s linear infinite both a0_t;">
        <path d="M973.293,885.823L995.374,885.823L995.374,882.295L973.293,882.295L973.293,885.823ZM973.293,871.706L998.528,871.706L998.528,868.177L973.293,868.177L973.293,871.706ZM973.293,892.882L985.911,892.882L985.911,889.352L973.293,889.352L973.293,892.882ZM973.293,878.765L992.22,878.765L992.22,875.235L973.293,875.235L973.293,878.765ZM973.293,864.647L985.911,864.647L985.911,861.118L973.293,861.118L973.293,864.647Z" fill-rule="evenodd" fill="#000000" stroke="#000000" transform="translate(145.74,114.529) scale(0.5,0.5) translate(-985.911,-877)" style="animation: 6s linear infinite both text-3_t, 6s linear infinite both text-3_s, 6s linear infinite both text-3_f;"/>
    </g>
    <g id="text-5" style="animation: 6s linear infinite both a1_t;">
        <path d="M973.293,885.823L995.374,885.823L995.374,882.295L973.293,882.295L973.293,885.823ZM973.293,871.706L998.528,871.706L998.528,868.177L973.293,868.177L973.293,871.706ZM973.293,892.882L985.911,892.882L985.911,889.352L973.293,889.352L973.293,892.882ZM973.293,878.765L992.22,878.765L992.22,875.235L973.293,875.235L973.293,878.765ZM973.293,864.647L985.911,864.647L985.911,861.118L973.293,861.118L973.293,864.647Z" fill-rule="evenodd" fill="#000000" stroke="#000000" transform="translate(139.74,86.529) scale(0.5,0.5) translate(-985.911,-877)" style="animation: 6s linear infinite both text-5_t, 6s linear infinite both text-5_s, 6s linear infinite both text-5_f;"/>
    </g>
    <g id="text-6" style="animation: 6s linear infinite both a2_t;">
        <path d="M973.293,885.823L995.374,885.823L995.374,882.295L973.293,882.295L973.293,885.823ZM973.293,871.706L998.528,871.706L998.528,868.177L973.293,868.177L973.293,871.706ZM973.293,892.882L985.911,892.882L985.911,889.352L973.293,889.352L973.293,892.882ZM973.293,878.765L992.22,878.765L992.22,875.235L973.293,875.235L973.293,878.765ZM973.293,864.647L985.911,864.647L985.911,861.118L973.293,861.118L973.293,864.647Z" fill-rule="evenodd" fill="#000000" stroke="#000000" transform="translate(90.6461,116.519) scale(0.5,0.5) translate(-985.911,-877)" style="animation: 6s linear infinite both text-6_t, 6s linear infinite both text-6_s, 6s linear infinite both text-6_f;"/>
    </g>
    <g id="text-4" style="animation: 6s linear infinite both a3_t;">
        <path d="M973.293,885.823L995.374,885.823L995.374,882.295L973.293,882.295L973.293,885.823ZM973.293,871.706L998.528,871.706L998.528,868.177L973.293,868.177L973.293,871.706ZM973.293,892.882L985.911,892.882L985.911,889.352L973.293,889.352L973.293,892.882ZM973.293,878.765L992.22,878.765L992.22,875.235L973.293,875.235L973.293,878.765ZM973.293,864.647L985.911,864.647L985.911,861.118L973.293,861.118L973.293,864.647Z" fill-rule="evenodd" fill="#000000" stroke="#000000" transform="translate(108.74,85.529) scale(0.5,0.5) translate(-985.911,-877)" style="animation: 6s linear infinite both text-4_t, 6s linear infinite both text-4_s, 6s linear infinite both text-4_f;"/>
    </g>
    <path id="image-2" d="M20.4717,24.8306L15.4484,17.1299C14.6483,15.9033,14.2484,15.2902,13.7565,15.0835C13.3263,14.9028,12.8475,14.9132,12.4244,15.1126C11.9406,15.3406,11.5638,15.9708,10.8102,17.231L4.45039,27.8671C4.28344,28.1462,4.19997,28.286,4.14084,28.4363C4.08837,28.5698,4.05026,28.7094,4.02725,28.8524C4.00131,29.0133,4.00128,29.1798,4.00119,29.5123L4,34.299L32.0008,34.299L32.0008,29.4898C32.0008,29.1654,32.0008,29.0033,31.9761,28.8459C31.9543,28.7064,31.9179,28.5698,31.868,28.439C31.8115,28.2915,31.7318,28.1542,31.5726,27.8794L29.8819,24.9635C28.3878,22.3868,27.6408,21.0983,26.6699,20.6287C25.8212,20.2179,24.8562,20.1895,23.9882,20.5499C22.9953,20.9618,22.1847,22.2044,20.5636,24.6897L20.4717,24.8306ZM20.4717,24.8306L26.6699,34.299M32.0008,7.78737C32.0008,9.87909,30.4339,11.5747,28.5009,11.5747C26.5679,11.5747,25.0009,9.87909,25.0009,7.78737C25.0009,5.69566,26.5679,4,28.5009,4C30.4339,4,32.0008,5.69566,32.0008,7.78737Z" stroke="#000000" stroke-width="2" stroke-linecap="round" stroke-linejoin="round" fill="none" transform="translate(97.123,95.144) scale(0.5,0.5) translate(-12.0004,-12)" style="animation: 6s linear infinite both image-2_t, 6s linear infinite both image-2_s;"/>
    <path id="doc" d="M1004.84,903.47L966.984,903.47L966.984,850.529L992.22,850.529L992.22,864.647L1004.84,864.647L1004.84,903.47ZM995.374,851.26L1004.18,861.118L995.374,861.118L995.374,851.26ZM1006.61,858.838L997.412,848.549C996.516,847.551,995.327,847,994.064,847L963.83,847L963.83,907L1007.99,907L1007.99,862.582C1007.99,861.171,1007.5,859.84,1006.61,858.838Z" fill-rule="evenodd" fill="#000000" display="none" transform="translate(165.42,185) translate(-1028.59,-960)"/>
    <path d="M9.05,14.9334L9.05,18.703M0.956252,6.50608C1.71937,6.45181,2.66013,6.45181,3.87,6.45181L14.23,6.45181C15.4398,6.45181,16.3807,6.45181,17.1438,6.50608M0.956252,6.50608C0.00390917,6.57375,-0.671741,6.72604,-1.24844,7.06813C-2.16221,7.61021,-2.90511,8.47514,-3.3707,9.53911C-3.9,10.7488,-3.9,12.332,-3.9,15.4989L-3.9,18.1376C-3.9,21.3044,-3.9,22.8876,-3.3707,24.0974C-2.90511,25.1613,-2.16221,26.0263,-1.24844,26.5683C-0.209637,27.1847,1.15024,27.1847,3.87,27.1847L14.23,27.1847C16.9498,27.1847,18.3095,27.1847,19.3484,26.5683C20.2623,26.0263,21.0051,25.1613,21.4706,24.0974C22,22.8876,22,21.3044,22,18.1376L22,15.4989C22,12.332,22,10.7488,21.4706,9.53911C21.0051,8.47514,20.2623,7.61021,19.3484,7.06813C18.7717,6.72604,18.096,6.57375,17.1438,6.50608M0.956252,6.50608L0.956252,2.68219C0.956252,-2.52255,4.57995,-6.74183,9.05,-6.74183C13.52,-6.74183,17.1438,-2.52255,17.1438,2.68219L17.1438,6.50608" stroke="#000000" stroke-width="2" stroke-linecap="round" stroke-linejoin="round" fill="none" transform="translate(125.69,101.95) translate(-12,-12)"/>
</svg>
